<?xml version="1.0" encoding="UTF-8" standalone="no"?>
<!-- Created with Inkscape (http://www.inkscape.org/) -->

<svg
   width="11.493054mm"
   height="11.209466mm"
   viewBox="0 0 11.493054 11.209466"
   version="1.1"
   id="svg2068"
   inkscape:version="1.1 (c68e22c387, 2021-05-23)"
   sodipodi:docname="github_mark.svg"
   xmlns:inkscape="http://www.inkscape.org/namespaces/inkscape"
   xmlns:sodipodi="http://sodipodi.sourceforge.net/DTD/sodipodi-0.dtd"
   xmlns="http://www.w3.org/2000/svg"
   xmlns:svg="http://www.w3.org/2000/svg">
  <sodipodi:namedview
     id="namedview2070"
     pagecolor="#ffffff"
     bordercolor="#666666"
     borderopacity="1.0"
     inkscape:pageshadow="2"
     inkscape:pageopacity="0.0"
     inkscape:pagecheckerboard="0"
     inkscape:document-units="mm"
     showgrid="false"
     inkscape:zoom="0.77771465"
     inkscape:cx="226.94699"
     inkscape:cy="-129.22477"
     inkscape:window-width="3840"
     inkscape:window-height="2096"
     inkscape:window-x="0"
     inkscape:window-y="27"
     inkscape:window-maximized="1"
     inkscape:current-layer="layer1" />
  <defs
     id="defs2065" />
  <g
     inkscape:label="Layer 1"
     inkscape:groupmode="layer"
     id="layer1"
     transform="translate(-44.944148,-182.52929)">
    <path
       d="m 50.690193,182.52929 c -3.172884,0 -5.746045,2.57281 -5.746045,5.74675 0,2.53894 1.646414,4.69265 3.929945,5.45253 0.287513,0.0529 0.392288,-0.12453 0.392288,-0.27693 0,-0.13652 -0.0049,-0.49777 -0.0078,-0.97719 -1.598436,0.34713 -1.935691,-0.77047 -1.935691,-0.77047 -0.261409,-0.66393 -0.638175,-0.84067 -0.638175,-0.84067 -0.521759,-0.3563 0.03951,-0.34925 0.03951,-0.34925 0.576791,0.0406 0.88018,0.59232 0.88018,0.59232 0.512586,0.87806 1.345142,0.62441 1.67252,0.47731 0.05221,-0.37113 0.20073,-0.62442 0.364772,-0.768 -1.275997,-0.14499 -2.617611,-0.63818 -2.617611,-2.84022 0,-0.62723 0.224014,-1.14053 0.591608,-1.54199 -0.05927,-0.14534 -0.256469,-0.72989 0.05644,-1.52082 0,0 0.482247,-0.15452 1.580091,0.58914 0.458259,-0.12771 0.950031,-0.19121 1.438628,-0.19368 0.488245,0.002 0.979664,0.066 1.438628,0.19368 1.097139,-0.74366 1.57868,-0.58914 1.57868,-0.58914 0.31362,0.79093 0.116417,1.37548 0.0575,1.52082 0.3683,0.40146 0.59055,0.91476 0.59055,1.54199 0,2.20769 -1.34373,2.69346 -2.623608,2.83563 0.206022,0.17745 0.389819,0.52811 0.389819,1.06398 0,0.76835 -0.0071,1.38818 -0.0071,1.57656 0,0.15381 0.103716,0.33267 0.395111,0.27658 2.281766,-0.76165 3.926769,-2.91394 3.926769,-5.45218 0,-3.17394 -2.573161,-5.74675 -5.747102,-5.74675"
       style="fill:#ffffff;fill-opacity:1;fill-rule:evenodd;stroke:none;stroke-width:0.0352778"
       id="path104" />
  </g>
</svg>
